# xmcd CD database file
#
# Track frame offsets:
#	150
#	22417
#	58830
#	86293
#	126326
#	177581
#	213919
#	250652
#
# Disc length: 3457 seconds
#
# Revision: 0
# Processed by: cddbd v1.5.1PL0 Copyright (c) Steve Scherf et al.
# Submitted via: CDex 1.51
#
DISCID=710d7f08
DTITLE=Adalberto Alvarez y su Son - En vivo
DYEAR=1997
DGENRE=Salsa
TTITLE0=Que te pasa mami
TTITLE1=Sones de Matamoros
TTITLE2=Me voy contigo
TTITLE3=Noche sensacional
TTITLE4=¿Y que tu quieres que te den?
TTITLE5=Guantanamera
TTITLE6=Dale como es
TTITLE7=Llego la orquesta
EXTD=YEAR: 1997
EXTT0=
EXTT1=
EXTT2=
EXTT3=
EXTT4=
EXTT5=
EXTT6=
EXTT7=
PLAYORDER=
